<mxfile host="app.diagrams.net" agent="Mozilla/5.0 (Macintosh; Intel Mac OS X 10_15_7) AppleWebKit/537.36 (KHTML, like Gecko) Chrome/133.0.0.0 Safari/537.36" version="26.0.11" pages="2">
  <diagram name="Create-Campaign" id="I4TZYW_Bxn7uYxpztRF7">
    <mxGraphModel dx="795" dy="510" grid="1" gridSize="10" guides="1" tooltips="1" connect="1" arrows="1" fold="1" page="1" pageScale="1" pageWidth="850" pageHeight="1100" math="0" shadow="0">
      <root>
        <mxCell id="0" />
        <mxCell id="1" parent="0" />
        <mxCell id="6O2quFRuJPFbSkHzGAcE-3" value="Program Overview" style="text;html=1;align=center;verticalAlign=middle;resizable=0;points=[];autosize=1;strokeColor=none;fillColor=none;fontSize=19;fontStyle=1" vertex="1" parent="1">
          <mxGeometry x="335" y="10" width="180" height="40" as="geometry" />
        </mxCell>
        <mxCell id="6O2quFRuJPFbSkHzGAcE-16" style="edgeStyle=orthogonalEdgeStyle;rounded=0;orthogonalLoop=1;jettySize=auto;html=1;entryX=0;entryY=0;entryDx=0;entryDy=0;entryPerimeter=0;" edge="1" parent="1">
          <mxGeometry relative="1" as="geometry">
            <mxPoint x="260" y="110" as="targetPoint" />
            <mxPoint x="111" y="110" as="sourcePoint" />
            <Array as="points">
              <mxPoint x="221" y="110" />
              <mxPoint x="221" y="110" />
            </Array>
          </mxGeometry>
        </mxCell>
        <mxCell id="6O2quFRuJPFbSkHzGAcE-17" value="Creates" style="edgeLabel;html=1;align=center;verticalAlign=middle;resizable=0;points=[];" vertex="1" connectable="0" parent="6O2quFRuJPFbSkHzGAcE-16">
          <mxGeometry x="-0.2752" y="3" relative="1" as="geometry">
            <mxPoint x="15" y="-7" as="offset" />
          </mxGeometry>
        </mxCell>
        <mxCell id="6O2quFRuJPFbSkHzGAcE-4" value="Actor" style="shape=umlActor;verticalLabelPosition=bottom;verticalAlign=top;html=1;outlineConnect=0;" vertex="1" parent="1">
          <mxGeometry x="90" y="80" width="20" height="60" as="geometry" />
        </mxCell>
        <mxCell id="6O2quFRuJPFbSkHzGAcE-5" value="&lt;div&gt;&lt;br&gt;&lt;/div&gt;Campaign&lt;div&gt;&lt;br&gt;&lt;/div&gt;" style="swimlane;fontStyle=0;childLayout=stackLayout;horizontal=1;startSize=30;horizontalStack=0;resizeParent=1;resizeParentMax=0;resizeLast=0;collapsible=1;marginBottom=0;whiteSpace=wrap;html=1;" vertex="1" parent="1">
          <mxGeometry x="259" y="80" width="140" height="270" as="geometry" />
        </mxCell>
        <mxCell id="6O2quFRuJPFbSkHzGAcE-6" value="owner: Pubkey" style="text;strokeColor=none;fillColor=none;align=left;verticalAlign=middle;spacingLeft=4;spacingRight=4;overflow=hidden;points=[[0,0.5],[1,0.5]];portConstraint=eastwest;rotatable=0;whiteSpace=wrap;html=1;" vertex="1" parent="6O2quFRuJPFbSkHzGAcE-5">
          <mxGeometry y="30" width="140" height="30" as="geometry" />
        </mxCell>
        <mxCell id="6O2quFRuJPFbSkHzGAcE-7" value="title: String" style="text;strokeColor=none;fillColor=none;align=left;verticalAlign=middle;spacingLeft=4;spacingRight=4;overflow=hidden;points=[[0,0.5],[1,0.5]];portConstraint=eastwest;rotatable=0;whiteSpace=wrap;html=1;" vertex="1" parent="6O2quFRuJPFbSkHzGAcE-5">
          <mxGeometry y="60" width="140" height="30" as="geometry" />
        </mxCell>
        <mxCell id="6O2quFRuJPFbSkHzGAcE-8" value="description: String" style="text;strokeColor=none;fillColor=none;align=left;verticalAlign=middle;spacingLeft=4;spacingRight=4;overflow=hidden;points=[[0,0.5],[1,0.5]];portConstraint=eastwest;rotatable=0;whiteSpace=wrap;html=1;" vertex="1" parent="6O2quFRuJPFbSkHzGAcE-5">
          <mxGeometry y="90" width="140" height="30" as="geometry" />
        </mxCell>
        <mxCell id="6O2quFRuJPFbSkHzGAcE-9" value="target_amount: u64" style="text;strokeColor=none;fillColor=none;align=left;verticalAlign=middle;spacingLeft=4;spacingRight=4;overflow=hidden;points=[[0,0.5],[1,0.5]];portConstraint=eastwest;rotatable=0;whiteSpace=wrap;html=1;" vertex="1" parent="6O2quFRuJPFbSkHzGAcE-5">
          <mxGeometry y="120" width="140" height="30" as="geometry" />
        </mxCell>
        <mxCell id="6O2quFRuJPFbSkHzGAcE-10" value="current_amount: u64" style="text;strokeColor=none;fillColor=none;align=left;verticalAlign=middle;spacingLeft=4;spacingRight=4;overflow=hidden;points=[[0,0.5],[1,0.5]];portConstraint=eastwest;rotatable=0;whiteSpace=wrap;html=1;" vertex="1" parent="6O2quFRuJPFbSkHzGAcE-5">
          <mxGeometry y="150" width="140" height="30" as="geometry" />
        </mxCell>
        <mxCell id="6O2quFRuJPFbSkHzGAcE-11" value="bump" style="text;strokeColor=none;fillColor=none;align=left;verticalAlign=middle;spacingLeft=4;spacingRight=4;overflow=hidden;points=[[0,0.5],[1,0.5]];portConstraint=eastwest;rotatable=0;whiteSpace=wrap;html=1;" vertex="1" parent="6O2quFRuJPFbSkHzGAcE-5">
          <mxGeometry y="180" width="140" height="30" as="geometry" />
        </mxCell>
        <mxCell id="6O2quFRuJPFbSkHzGAcE-12" value="start_timestamp: u64" style="text;strokeColor=none;fillColor=none;align=left;verticalAlign=middle;spacingLeft=4;spacingRight=4;overflow=hidden;points=[[0,0.5],[1,0.5]];portConstraint=eastwest;rotatable=0;whiteSpace=wrap;html=1;" vertex="1" parent="6O2quFRuJPFbSkHzGAcE-5">
          <mxGeometry y="210" width="140" height="30" as="geometry" />
        </mxCell>
        <mxCell id="6O2quFRuJPFbSkHzGAcE-13" value="end_timestamp: u64" style="text;strokeColor=none;fillColor=none;align=left;verticalAlign=middle;spacingLeft=4;spacingRight=4;overflow=hidden;points=[[0,0.5],[1,0.5]];portConstraint=eastwest;rotatable=0;whiteSpace=wrap;html=1;" vertex="1" parent="6O2quFRuJPFbSkHzGAcE-5">
          <mxGeometry y="240" width="140" height="30" as="geometry" />
        </mxCell>
        <mxCell id="6O2quFRuJPFbSkHzGAcE-22" style="edgeStyle=orthogonalEdgeStyle;rounded=0;orthogonalLoop=1;jettySize=auto;html=1;" edge="1" parent="1" source="6O2quFRuJPFbSkHzGAcE-18">
          <mxGeometry relative="1" as="geometry">
            <mxPoint x="400" y="110" as="targetPoint" />
          </mxGeometry>
        </mxCell>
        <mxCell id="6O2quFRuJPFbSkHzGAcE-18" value="Campaign Vault" style="swimlane;fontStyle=0;childLayout=stackLayout;horizontal=1;startSize=30;horizontalStack=0;resizeParent=1;resizeParentMax=0;resizeLast=0;collapsible=1;marginBottom=0;whiteSpace=wrap;html=1;" vertex="1" parent="1">
          <mxGeometry x="520" y="80" width="140" height="60" as="geometry" />
        </mxCell>
        <mxCell id="6O2quFRuJPFbSkHzGAcE-19" value="owner: Pubkey" style="text;strokeColor=none;fillColor=none;align=left;verticalAlign=middle;spacingLeft=4;spacingRight=4;overflow=hidden;points=[[0,0.5],[1,0.5]];portConstraint=eastwest;rotatable=0;whiteSpace=wrap;html=1;" vertex="1" parent="6O2quFRuJPFbSkHzGAcE-18">
          <mxGeometry y="30" width="140" height="30" as="geometry" />
        </mxCell>
        <mxCell id="6O2quFRuJPFbSkHzGAcE-23" value="Belongs" style="text;html=1;align=center;verticalAlign=middle;resizable=0;points=[];autosize=1;strokeColor=none;fillColor=none;" vertex="1" parent="1">
          <mxGeometry x="420" y="90" width="70" height="30" as="geometry" />
        </mxCell>
        <mxCell id="6O2quFRuJPFbSkHzGAcE-24" value="&lt;b&gt;&lt;font style=&quot;font-size: 20px;&quot;&gt;Initialize Campaign Config&amp;nbsp;&lt;/font&gt;&lt;/b&gt;" style="text;html=1;align=center;verticalAlign=middle;resizable=0;points=[];autosize=1;strokeColor=none;fillColor=none;" vertex="1" parent="1">
          <mxGeometry x="280" y="423" width="280" height="40" as="geometry" />
        </mxCell>
        <mxCell id="6O2quFRuJPFbSkHzGAcE-25" value="Admin&lt;div&gt;&lt;br&gt;&lt;/div&gt;" style="shape=umlActor;verticalLabelPosition=bottom;verticalAlign=top;html=1;outlineConnect=0;" vertex="1" parent="1">
          <mxGeometry x="399" y="480" width="30" height="60" as="geometry" />
        </mxCell>
        <mxCell id="6O2quFRuJPFbSkHzGAcE-26" value="Campaign Config" style="swimlane;fontStyle=0;childLayout=stackLayout;horizontal=1;startSize=30;horizontalStack=0;resizeParent=1;resizeParentMax=0;resizeLast=0;collapsible=1;marginBottom=0;whiteSpace=wrap;html=1;" vertex="1" parent="1">
          <mxGeometry x="350" y="610" width="140" height="210" as="geometry" />
        </mxCell>
        <mxCell id="6O2quFRuJPFbSkHzGAcE-27" value="owner: Pubkey" style="text;strokeColor=none;fillColor=none;align=left;verticalAlign=middle;spacingLeft=4;spacingRight=4;overflow=hidden;points=[[0,0.5],[1,0.5]];portConstraint=eastwest;rotatable=0;whiteSpace=wrap;html=1;" vertex="1" parent="6O2quFRuJPFbSkHzGAcE-26">
          <mxGeometry y="30" width="140" height="30" as="geometry" />
        </mxCell>
        <mxCell id="6O2quFRuJPFbSkHzGAcE-34" value="max_duration: u64" style="text;strokeColor=none;fillColor=none;align=left;verticalAlign=middle;spacingLeft=4;spacingRight=4;overflow=hidden;points=[[0,0.5],[1,0.5]];portConstraint=eastwest;rotatable=0;whiteSpace=wrap;html=1;" vertex="1" parent="6O2quFRuJPFbSkHzGAcE-26">
          <mxGeometry y="60" width="140" height="30" as="geometry" />
        </mxCell>
        <mxCell id="6O2quFRuJPFbSkHzGAcE-35" value="max_amount: u64" style="text;strokeColor=none;fillColor=none;align=left;verticalAlign=middle;spacingLeft=4;spacingRight=4;overflow=hidden;points=[[0,0.5],[1,0.5]];portConstraint=eastwest;rotatable=0;whiteSpace=wrap;html=1;" vertex="1" parent="6O2quFRuJPFbSkHzGAcE-26">
          <mxGeometry y="90" width="140" height="30" as="geometry" />
        </mxCell>
        <mxCell id="6O2quFRuJPFbSkHzGAcE-28" value="fee: u16" style="text;strokeColor=none;fillColor=none;align=left;verticalAlign=middle;spacingLeft=4;spacingRight=4;overflow=hidden;points=[[0,0.5],[1,0.5]];portConstraint=eastwest;rotatable=0;whiteSpace=wrap;html=1;" vertex="1" parent="6O2quFRuJPFbSkHzGAcE-26">
          <mxGeometry y="120" width="140" height="30" as="geometry" />
        </mxCell>
        <mxCell id="6O2quFRuJPFbSkHzGAcE-29" value="reward_mint" style="text;strokeColor=none;fillColor=none;align=left;verticalAlign=middle;spacingLeft=4;spacingRight=4;overflow=hidden;points=[[0,0.5],[1,0.5]];portConstraint=eastwest;rotatable=0;whiteSpace=wrap;html=1;" vertex="1" parent="6O2quFRuJPFbSkHzGAcE-26">
          <mxGeometry y="150" width="140" height="30" as="geometry" />
        </mxCell>
        <mxCell id="6O2quFRuJPFbSkHzGAcE-33" value="bump" style="text;strokeColor=none;fillColor=none;align=left;verticalAlign=middle;spacingLeft=4;spacingRight=4;overflow=hidden;points=[[0,0.5],[1,0.5]];portConstraint=eastwest;rotatable=0;whiteSpace=wrap;html=1;" vertex="1" parent="6O2quFRuJPFbSkHzGAcE-26">
          <mxGeometry y="180" width="140" height="30" as="geometry" />
        </mxCell>
        <mxCell id="6O2quFRuJPFbSkHzGAcE-30" style="edgeStyle=orthogonalEdgeStyle;rounded=0;orthogonalLoop=1;jettySize=auto;html=1;entryX=0.457;entryY=0.008;entryDx=0;entryDy=0;entryPerimeter=0;" edge="1" parent="1" source="6O2quFRuJPFbSkHzGAcE-25" target="6O2quFRuJPFbSkHzGAcE-26">
          <mxGeometry relative="1" as="geometry" />
        </mxCell>
        <mxCell id="6O2quFRuJPFbSkHzGAcE-31" value="creates" style="text;html=1;align=center;verticalAlign=middle;resizable=0;points=[];autosize=1;strokeColor=none;fillColor=none;" vertex="1" parent="1">
          <mxGeometry x="410" y="570" width="60" height="30" as="geometry" />
        </mxCell>
        <mxCell id="6O2quFRuJPFbSkHzGAcE-43" value="&lt;b&gt;&lt;font style=&quot;font-size: 20px;&quot;&gt;User Create Campaign&lt;/font&gt;&lt;/b&gt;" style="text;html=1;align=center;verticalAlign=middle;resizable=0;points=[];autosize=1;strokeColor=none;fillColor=none;" vertex="1" parent="1">
          <mxGeometry x="310" y="860" width="240" height="40" as="geometry" />
        </mxCell>
        <mxCell id="6O2quFRuJPFbSkHzGAcE-59" style="edgeStyle=orthogonalEdgeStyle;rounded=0;orthogonalLoop=1;jettySize=auto;html=1;" edge="1" parent="1" source="6O2quFRuJPFbSkHzGAcE-44" target="6O2quFRuJPFbSkHzGAcE-50">
          <mxGeometry relative="1" as="geometry" />
        </mxCell>
        <mxCell id="6O2quFRuJPFbSkHzGAcE-44" value="Actor" style="shape=umlActor;verticalLabelPosition=bottom;verticalAlign=top;html=1;outlineConnect=0;" vertex="1" parent="1">
          <mxGeometry x="405" y="910" width="30" height="60" as="geometry" />
        </mxCell>
        <mxCell id="6O2quFRuJPFbSkHzGAcE-50" value="Campaign" style="swimlane;fontStyle=0;childLayout=stackLayout;horizontal=1;startSize=30;horizontalStack=0;resizeParent=1;resizeParentMax=0;resizeLast=0;collapsible=1;marginBottom=0;whiteSpace=wrap;html=1;" vertex="1" parent="1">
          <mxGeometry x="350" y="1070" width="140" height="240" as="geometry" />
        </mxCell>
        <mxCell id="6O2quFRuJPFbSkHzGAcE-51" value="title" style="text;strokeColor=none;fillColor=none;align=left;verticalAlign=middle;spacingLeft=4;spacingRight=4;overflow=hidden;points=[[0,0.5],[1,0.5]];portConstraint=eastwest;rotatable=0;whiteSpace=wrap;html=1;" vertex="1" parent="6O2quFRuJPFbSkHzGAcE-50">
          <mxGeometry y="30" width="140" height="30" as="geometry" />
        </mxCell>
        <mxCell id="6O2quFRuJPFbSkHzGAcE-52" value="description" style="text;strokeColor=none;fillColor=none;align=left;verticalAlign=middle;spacingLeft=4;spacingRight=4;overflow=hidden;points=[[0,0.5],[1,0.5]];portConstraint=eastwest;rotatable=0;whiteSpace=wrap;html=1;" vertex="1" parent="6O2quFRuJPFbSkHzGAcE-50">
          <mxGeometry y="60" width="140" height="30" as="geometry" />
        </mxCell>
        <mxCell id="6O2quFRuJPFbSkHzGAcE-53" value="target_amount" style="text;strokeColor=none;fillColor=none;align=left;verticalAlign=middle;spacingLeft=4;spacingRight=4;overflow=hidden;points=[[0,0.5],[1,0.5]];portConstraint=eastwest;rotatable=0;whiteSpace=wrap;html=1;" vertex="1" parent="6O2quFRuJPFbSkHzGAcE-50">
          <mxGeometry y="90" width="140" height="30" as="geometry" />
        </mxCell>
        <mxCell id="6O2quFRuJPFbSkHzGAcE-56" value="current_amount" style="text;strokeColor=none;fillColor=none;align=left;verticalAlign=middle;spacingLeft=4;spacingRight=4;overflow=hidden;points=[[0,0.5],[1,0.5]];portConstraint=eastwest;rotatable=0;whiteSpace=wrap;html=1;" vertex="1" parent="6O2quFRuJPFbSkHzGAcE-50">
          <mxGeometry y="120" width="140" height="30" as="geometry" />
        </mxCell>
        <mxCell id="6O2quFRuJPFbSkHzGAcE-54" value="start_timestamp" style="text;strokeColor=none;fillColor=none;align=left;verticalAlign=middle;spacingLeft=4;spacingRight=4;overflow=hidden;points=[[0,0.5],[1,0.5]];portConstraint=eastwest;rotatable=0;whiteSpace=wrap;html=1;" vertex="1" parent="6O2quFRuJPFbSkHzGAcE-50">
          <mxGeometry y="150" width="140" height="30" as="geometry" />
        </mxCell>
        <mxCell id="6O2quFRuJPFbSkHzGAcE-55" value="end_timestamp" style="text;strokeColor=none;fillColor=none;align=left;verticalAlign=middle;spacingLeft=4;spacingRight=4;overflow=hidden;points=[[0,0.5],[1,0.5]];portConstraint=eastwest;rotatable=0;whiteSpace=wrap;html=1;" vertex="1" parent="6O2quFRuJPFbSkHzGAcE-50">
          <mxGeometry y="180" width="140" height="30" as="geometry" />
        </mxCell>
        <mxCell id="6O2quFRuJPFbSkHzGAcE-58" value="bump" style="text;strokeColor=none;fillColor=none;align=left;verticalAlign=middle;spacingLeft=4;spacingRight=4;overflow=hidden;points=[[0,0.5],[1,0.5]];portConstraint=eastwest;rotatable=0;whiteSpace=wrap;html=1;" vertex="1" parent="6O2quFRuJPFbSkHzGAcE-50">
          <mxGeometry y="210" width="140" height="30" as="geometry" />
        </mxCell>
        <mxCell id="6O2quFRuJPFbSkHzGAcE-60" value="Campaign Vault" style="rounded=0;whiteSpace=wrap;html=1;" vertex="1" parent="1">
          <mxGeometry x="120" y="1150" width="120" height="60" as="geometry" />
        </mxCell>
        <mxCell id="6O2quFRuJPFbSkHzGAcE-61" style="edgeStyle=orthogonalEdgeStyle;rounded=0;orthogonalLoop=1;jettySize=auto;html=1;entryX=-0.03;entryY=0.694;entryDx=0;entryDy=0;entryPerimeter=0;" edge="1" parent="1" source="6O2quFRuJPFbSkHzGAcE-60" target="6O2quFRuJPFbSkHzGAcE-53">
          <mxGeometry relative="1" as="geometry" />
        </mxCell>
        <mxCell id="6O2quFRuJPFbSkHzGAcE-62" value="linked to" style="text;html=1;align=center;verticalAlign=middle;resizable=0;points=[];autosize=1;strokeColor=none;fillColor=none;" vertex="1" parent="1">
          <mxGeometry x="249" y="1150" width="70" height="30" as="geometry" />
        </mxCell>
        <mxCell id="6O2quFRuJPFbSkHzGAcE-63" value="&lt;b&gt;&lt;font style=&quot;font-size: 20px;&quot;&gt;User Donate to Campaign&lt;/font&gt;&lt;/b&gt;" style="text;html=1;align=center;verticalAlign=middle;resizable=0;points=[];autosize=1;strokeColor=none;fillColor=none;" vertex="1" parent="1">
          <mxGeometry x="275" y="1370" width="270" height="40" as="geometry" />
        </mxCell>
        <mxCell id="6O2quFRuJPFbSkHzGAcE-79" style="edgeStyle=orthogonalEdgeStyle;rounded=0;orthogonalLoop=1;jettySize=auto;html=1;entryX=0.5;entryY=0;entryDx=0;entryDy=0;" edge="1" parent="1" source="6O2quFRuJPFbSkHzGAcE-64" target="6O2quFRuJPFbSkHzGAcE-65">
          <mxGeometry relative="1" as="geometry" />
        </mxCell>
        <mxCell id="6O2quFRuJPFbSkHzGAcE-64" value="Actor" style="shape=umlActor;verticalLabelPosition=bottom;verticalAlign=top;html=1;outlineConnect=0;" vertex="1" parent="1">
          <mxGeometry x="380" y="1420" width="30" height="60" as="geometry" />
        </mxCell>
        <mxCell id="6O2quFRuJPFbSkHzGAcE-67" value="" style="edgeStyle=orthogonalEdgeStyle;rounded=0;orthogonalLoop=1;jettySize=auto;html=1;" edge="1" parent="1" source="6O2quFRuJPFbSkHzGAcE-65" target="6O2quFRuJPFbSkHzGAcE-66">
          <mxGeometry relative="1" as="geometry" />
        </mxCell>
        <mxCell id="6O2quFRuJPFbSkHzGAcE-65" value="initiate donation to Campaign" style="rounded=0;whiteSpace=wrap;html=1;" vertex="1" parent="1">
          <mxGeometry x="335" y="1550" width="120" height="60" as="geometry" />
        </mxCell>
        <mxCell id="6O2quFRuJPFbSkHzGAcE-70" value="" style="edgeStyle=orthogonalEdgeStyle;rounded=0;orthogonalLoop=1;jettySize=auto;html=1;" edge="1" parent="1" source="6O2quFRuJPFbSkHzGAcE-66" target="6O2quFRuJPFbSkHzGAcE-69">
          <mxGeometry relative="1" as="geometry" />
        </mxCell>
        <mxCell id="6O2quFRuJPFbSkHzGAcE-76" style="edgeStyle=orthogonalEdgeStyle;rounded=0;orthogonalLoop=1;jettySize=auto;html=1;exitX=0;exitY=0.5;exitDx=0;exitDy=0;entryX=0;entryY=0.5;entryDx=0;entryDy=0;" edge="1" parent="1" source="6O2quFRuJPFbSkHzGAcE-66" target="6O2quFRuJPFbSkHzGAcE-65">
          <mxGeometry relative="1" as="geometry">
            <Array as="points">
              <mxPoint x="280" y="1720" />
              <mxPoint x="280" y="1580" />
            </Array>
          </mxGeometry>
        </mxCell>
        <mxCell id="6O2quFRuJPFbSkHzGAcE-66" value="is Valid&lt;div&gt;Donation&lt;/div&gt;" style="rhombus;whiteSpace=wrap;html=1;rounded=0;" vertex="1" parent="1">
          <mxGeometry x="355" y="1680" width="80" height="80" as="geometry" />
        </mxCell>
        <mxCell id="6O2quFRuJPFbSkHzGAcE-72" value="" style="edgeStyle=orthogonalEdgeStyle;rounded=0;orthogonalLoop=1;jettySize=auto;html=1;" edge="1" parent="1" source="6O2quFRuJPFbSkHzGAcE-69" target="6O2quFRuJPFbSkHzGAcE-71">
          <mxGeometry relative="1" as="geometry" />
        </mxCell>
        <mxCell id="6O2quFRuJPFbSkHzGAcE-69" value="Update Campaign&lt;div&gt;Donation Data&amp;nbsp;&lt;/div&gt;" style="whiteSpace=wrap;html=1;rounded=0;" vertex="1" parent="1">
          <mxGeometry x="335" y="1810" width="120" height="60" as="geometry" />
        </mxCell>
        <mxCell id="6O2quFRuJPFbSkHzGAcE-74" value="" style="edgeStyle=orthogonalEdgeStyle;rounded=0;orthogonalLoop=1;jettySize=auto;html=1;" edge="1" parent="1" source="6O2quFRuJPFbSkHzGAcE-71" target="6O2quFRuJPFbSkHzGAcE-73">
          <mxGeometry relative="1" as="geometry" />
        </mxCell>
        <mxCell id="6O2quFRuJPFbSkHzGAcE-71" value="Mint Reward token&lt;div&gt;to Actor&lt;/div&gt;" style="whiteSpace=wrap;html=1;rounded=0;" vertex="1" parent="1">
          <mxGeometry x="335" y="1920" width="120" height="60" as="geometry" />
        </mxCell>
        <mxCell id="6O2quFRuJPFbSkHzGAcE-73" value="End" style="ellipse;whiteSpace=wrap;html=1;rounded=0;" vertex="1" parent="1">
          <mxGeometry x="355" y="2020" width="80" height="40" as="geometry" />
        </mxCell>
        <mxCell id="6O2quFRuJPFbSkHzGAcE-77" value="No" style="text;html=1;align=center;verticalAlign=middle;resizable=0;points=[];autosize=1;strokeColor=none;fillColor=none;" vertex="1" parent="1">
          <mxGeometry x="300" y="1690" width="40" height="30" as="geometry" />
        </mxCell>
        <mxCell id="6O2quFRuJPFbSkHzGAcE-78" value="yes" style="text;html=1;align=center;verticalAlign=middle;resizable=0;points=[];autosize=1;strokeColor=none;fillColor=none;" vertex="1" parent="1">
          <mxGeometry x="390" y="1760" width="40" height="30" as="geometry" />
        </mxCell>
      </root>
    </mxGraphModel>
  </diagram>
  <diagram id="Vh_mNMpPbudm44tj0-V1" name="Page-2">
    <mxGraphModel grid="1" page="1" gridSize="10" guides="1" tooltips="1" connect="1" arrows="1" fold="1" pageScale="1" pageWidth="850" pageHeight="1100" math="0" shadow="0">
      <root>
        <mxCell id="0" />
        <mxCell id="1" parent="0" />
      </root>
    </mxGraphModel>
  </diagram>
</mxfile>
